<mxfile host="app.diagrams.net" modified="2024-03-05T11:23:24.687Z" agent="Mozilla/5.0 (Windows NT 10.0; Win64; x64) AppleWebKit/537.36 (KHTML, like Gecko) Chrome/122.0.0.0 Safari/537.36" etag="mQRxcfXdJVnLw4tMvYEn" version="24.0.1" type="github">
  <diagram name="第 1 页" id="bhULwGrcWHLfaI0pKa20">
    <mxGraphModel dx="893" dy="1652" grid="1" gridSize="10" guides="1" tooltips="1" connect="1" arrows="1" fold="1" page="1" pageScale="1" pageWidth="827" pageHeight="1169" math="0" shadow="0">
      <root>
        <mxCell id="0" />
        <mxCell id="1" parent="0" />
        <mxCell id="XkOptIO2cjGXNpbfzOup-95" value="" style="group" vertex="1" connectable="0" parent="1">
          <mxGeometry x="70" y="-60" width="590" height="560" as="geometry" />
        </mxCell>
        <mxCell id="XkOptIO2cjGXNpbfzOup-61" value="" style="rounded=0;whiteSpace=wrap;html=1;fillColor=#F5DDA7;strokeColor=none;shadow=0;" vertex="1" parent="XkOptIO2cjGXNpbfzOup-95">
          <mxGeometry x="290" y="60" width="160" height="160" as="geometry" />
        </mxCell>
        <mxCell id="XkOptIO2cjGXNpbfzOup-40" value="" style="rounded=0;whiteSpace=wrap;html=1;fillColor=#D4E1F5;strokeColor=none;shadow=0;" vertex="1" parent="XkOptIO2cjGXNpbfzOup-95">
          <mxGeometry x="170" y="220" width="120" height="280" as="geometry" />
        </mxCell>
        <mxCell id="XkOptIO2cjGXNpbfzOup-2" value="&lt;font style=&quot;font-size: 10px;&quot;&gt;2&lt;/font&gt;" style="text;html=1;align=center;verticalAlign=middle;whiteSpace=wrap;rounded=0;shadow=0;fontStyle=1" vertex="1" parent="XkOptIO2cjGXNpbfzOup-95">
          <mxGeometry x="140" y="450" width="40" height="20" as="geometry" />
        </mxCell>
        <mxCell id="XkOptIO2cjGXNpbfzOup-5" value="&lt;font style=&quot;font-size: 10px;&quot;&gt;4&lt;/font&gt;" style="text;html=1;align=center;verticalAlign=middle;whiteSpace=wrap;rounded=0;shadow=0;fontStyle=1" vertex="1" parent="XkOptIO2cjGXNpbfzOup-95">
          <mxGeometry x="140" y="370" width="40" height="20" as="geometry" />
        </mxCell>
        <mxCell id="XkOptIO2cjGXNpbfzOup-6" value="&lt;font style=&quot;font-size: 10px;&quot;&gt;6&lt;/font&gt;" style="text;html=1;align=center;verticalAlign=middle;whiteSpace=wrap;rounded=0;shadow=0;fontStyle=1" vertex="1" parent="XkOptIO2cjGXNpbfzOup-95">
          <mxGeometry x="140" y="290" width="40" height="20" as="geometry" />
        </mxCell>
        <mxCell id="XkOptIO2cjGXNpbfzOup-7" value="&lt;font style=&quot;font-size: 10px;&quot;&gt;8&lt;/font&gt;" style="text;html=1;align=center;verticalAlign=middle;whiteSpace=wrap;rounded=0;shadow=0;fontStyle=1;fillColor=#FFB8B8;" vertex="1" parent="XkOptIO2cjGXNpbfzOup-95">
          <mxGeometry x="152.5" y="212.5" width="15" height="15" as="geometry" />
        </mxCell>
        <mxCell id="XkOptIO2cjGXNpbfzOup-8" value="&lt;font style=&quot;font-size: 10px;&quot;&gt;10&lt;/font&gt;" style="text;html=1;align=center;verticalAlign=middle;whiteSpace=wrap;rounded=0;shadow=0;fontStyle=1" vertex="1" parent="XkOptIO2cjGXNpbfzOup-95">
          <mxGeometry x="140" y="130" width="40" height="20" as="geometry" />
        </mxCell>
        <mxCell id="XkOptIO2cjGXNpbfzOup-9" value="&lt;font style=&quot;font-size: 10px;&quot;&gt;12&lt;/font&gt;" style="text;html=1;align=center;verticalAlign=middle;whiteSpace=wrap;rounded=0;shadow=0;fontStyle=1" vertex="1" parent="XkOptIO2cjGXNpbfzOup-95">
          <mxGeometry x="140" y="50" width="40" height="20" as="geometry" />
        </mxCell>
        <mxCell id="XkOptIO2cjGXNpbfzOup-10" value="&lt;font style=&quot;font-weight: normal; font-size: 8px;&quot;&gt;1&lt;/font&gt;" style="text;html=1;align=center;verticalAlign=middle;whiteSpace=wrap;rounded=0;shadow=0;fontStyle=1" vertex="1" parent="XkOptIO2cjGXNpbfzOup-95">
          <mxGeometry x="140" y="490" width="40" height="20" as="geometry" />
        </mxCell>
        <mxCell id="XkOptIO2cjGXNpbfzOup-11" value="&lt;font style=&quot;font-size: 10px;&quot;&gt;0&lt;/font&gt;" style="text;html=1;align=center;verticalAlign=middle;whiteSpace=wrap;rounded=0;shadow=0;fontStyle=1" vertex="1" parent="XkOptIO2cjGXNpbfzOup-95">
          <mxGeometry x="140" y="540" width="40" height="20" as="geometry" />
        </mxCell>
        <mxCell id="XkOptIO2cjGXNpbfzOup-22" value="" style="ellipse;whiteSpace=wrap;html=1;aspect=fixed;" vertex="1" parent="XkOptIO2cjGXNpbfzOup-95">
          <mxGeometry x="170" y="497.5" width="5" height="5" as="geometry" />
        </mxCell>
        <mxCell id="XkOptIO2cjGXNpbfzOup-23" value="" style="ellipse;whiteSpace=wrap;html=1;aspect=fixed;" vertex="1" parent="XkOptIO2cjGXNpbfzOup-95">
          <mxGeometry x="250" y="377.5" width="5" height="5" as="geometry" />
        </mxCell>
        <mxCell id="XkOptIO2cjGXNpbfzOup-25" value="" style="ellipse;whiteSpace=wrap;html=1;aspect=fixed;" vertex="1" parent="XkOptIO2cjGXNpbfzOup-95">
          <mxGeometry x="328" y="178.5" width="5" height="5" as="geometry" />
        </mxCell>
        <mxCell id="XkOptIO2cjGXNpbfzOup-27" value="" style="ellipse;whiteSpace=wrap;html=1;aspect=fixed;" vertex="1" parent="XkOptIO2cjGXNpbfzOup-95">
          <mxGeometry x="408" y="98" width="5" height="5" as="geometry" />
        </mxCell>
        <mxCell id="XkOptIO2cjGXNpbfzOup-28" value="" style="ellipse;whiteSpace=wrap;html=1;aspect=fixed;" vertex="1" parent="XkOptIO2cjGXNpbfzOup-95">
          <mxGeometry x="448" y="58" width="5" height="5" as="geometry" />
        </mxCell>
        <mxCell id="XkOptIO2cjGXNpbfzOup-36" value="" style="ellipse;whiteSpace=wrap;html=1;aspect=fixed;" vertex="1" parent="XkOptIO2cjGXNpbfzOup-95">
          <mxGeometry x="210" y="457.5" width="5" height="5" as="geometry" />
        </mxCell>
        <mxCell id="XkOptIO2cjGXNpbfzOup-37" value="" style="endArrow=none;html=1;rounded=0;exitX=0.5;exitY=0;exitDx=0;exitDy=0;" edge="1" parent="XkOptIO2cjGXNpbfzOup-95" source="XkOptIO2cjGXNpbfzOup-36">
          <mxGeometry width="50" height="50" relative="1" as="geometry">
            <mxPoint x="210" y="450" as="sourcePoint" />
            <mxPoint x="250" y="380" as="targetPoint" />
          </mxGeometry>
        </mxCell>
        <mxCell id="XkOptIO2cjGXNpbfzOup-39" value="" style="endArrow=none;html=1;rounded=0;entryX=0;entryY=1;entryDx=0;entryDy=0;exitX=1;exitY=0;exitDx=0;exitDy=0;" edge="1" parent="XkOptIO2cjGXNpbfzOup-95" source="XkOptIO2cjGXNpbfzOup-22" target="XkOptIO2cjGXNpbfzOup-36">
          <mxGeometry width="50" height="50" relative="1" as="geometry">
            <mxPoint x="170" y="500" as="sourcePoint" />
            <mxPoint x="340" y="310" as="targetPoint" />
          </mxGeometry>
        </mxCell>
        <mxCell id="XkOptIO2cjGXNpbfzOup-41" value="" style="endArrow=none;dashed=1;html=1;dashPattern=1 3;strokeWidth=2;rounded=0;entryX=0.5;entryY=1;entryDx=0;entryDy=0;" edge="1" parent="XkOptIO2cjGXNpbfzOup-95" target="XkOptIO2cjGXNpbfzOup-23">
          <mxGeometry width="50" height="50" relative="1" as="geometry">
            <mxPoint x="250" y="540" as="sourcePoint" />
            <mxPoint x="300" y="440" as="targetPoint" />
          </mxGeometry>
        </mxCell>
        <mxCell id="XkOptIO2cjGXNpbfzOup-43" value="" style="endArrow=none;dashed=1;html=1;dashPattern=1 3;strokeWidth=2;rounded=0;entryX=0.5;entryY=1;entryDx=0;entryDy=0;" edge="1" parent="XkOptIO2cjGXNpbfzOup-95" target="XkOptIO2cjGXNpbfzOup-36">
          <mxGeometry width="50" height="50" relative="1" as="geometry">
            <mxPoint x="210" y="540" as="sourcePoint" />
            <mxPoint x="263" y="393" as="targetPoint" />
          </mxGeometry>
        </mxCell>
        <mxCell id="XkOptIO2cjGXNpbfzOup-49" value="" style="endArrow=none;dashed=1;html=1;dashPattern=1 3;strokeWidth=2;rounded=0;entryX=1;entryY=0;entryDx=0;entryDy=0;fillColor=#FF2414;strokeColor=#FF2414;" edge="1" parent="XkOptIO2cjGXNpbfzOup-95" target="XkOptIO2cjGXNpbfzOup-48">
          <mxGeometry width="50" height="50" relative="1" as="geometry">
            <mxPoint x="170" y="218" as="sourcePoint" />
            <mxPoint x="330" y="220" as="targetPoint" />
          </mxGeometry>
        </mxCell>
        <mxCell id="XkOptIO2cjGXNpbfzOup-48" value="" style="ellipse;whiteSpace=wrap;html=1;aspect=fixed;" vertex="1" parent="XkOptIO2cjGXNpbfzOup-95">
          <mxGeometry x="289" y="219" width="5" height="5" as="geometry" />
        </mxCell>
        <mxCell id="XkOptIO2cjGXNpbfzOup-59" value="" style="endArrow=none;html=1;rounded=0;entryX=0;entryY=1;entryDx=0;entryDy=0;exitX=1;exitY=0;exitDx=0;exitDy=0;" edge="1" parent="XkOptIO2cjGXNpbfzOup-95" source="XkOptIO2cjGXNpbfzOup-48" target="XkOptIO2cjGXNpbfzOup-28">
          <mxGeometry width="50" height="50" relative="1" as="geometry">
            <mxPoint x="360" y="230" as="sourcePoint" />
            <mxPoint x="410" y="180" as="targetPoint" />
          </mxGeometry>
        </mxCell>
        <mxCell id="XkOptIO2cjGXNpbfzOup-52" value="" style="endArrow=none;html=1;rounded=0;entryX=0;entryY=1;entryDx=0;entryDy=0;exitX=0;exitY=0.5;exitDx=0;exitDy=0;exitPerimeter=0;" edge="1" parent="XkOptIO2cjGXNpbfzOup-95" source="XkOptIO2cjGXNpbfzOup-23" target="XkOptIO2cjGXNpbfzOup-48">
          <mxGeometry width="50" height="50" relative="1" as="geometry">
            <mxPoint x="220" y="330" as="sourcePoint" />
            <mxPoint x="270" y="280" as="targetPoint" />
          </mxGeometry>
        </mxCell>
        <mxCell id="XkOptIO2cjGXNpbfzOup-26" value="" style="ellipse;whiteSpace=wrap;html=1;aspect=fixed;" vertex="1" parent="XkOptIO2cjGXNpbfzOup-95">
          <mxGeometry x="368" y="137.5" width="5" height="5" as="geometry" />
        </mxCell>
        <mxCell id="XkOptIO2cjGXNpbfzOup-63" value="" style="endArrow=none;html=1;strokeWidth=1.5;rounded=0;dashed=1;dashPattern=1 2;entryX=0.5;entryY=1;entryDx=0;entryDy=0;" edge="1" parent="XkOptIO2cjGXNpbfzOup-95" target="XkOptIO2cjGXNpbfzOup-48">
          <mxGeometry width="50" height="50" relative="1" as="geometry">
            <mxPoint x="290" y="540" as="sourcePoint" />
            <mxPoint x="340" y="190" as="targetPoint" />
          </mxGeometry>
        </mxCell>
        <mxCell id="XkOptIO2cjGXNpbfzOup-64" value="" style="endArrow=none;html=1;strokeWidth=1.5;rounded=0;dashed=1;dashPattern=1 2;entryX=0.5;entryY=1;entryDx=0;entryDy=0;" edge="1" parent="XkOptIO2cjGXNpbfzOup-95" target="XkOptIO2cjGXNpbfzOup-26">
          <mxGeometry width="50" height="50" relative="1" as="geometry">
            <mxPoint x="371" y="540" as="sourcePoint" />
            <mxPoint x="350" y="200" as="targetPoint" />
          </mxGeometry>
        </mxCell>
        <mxCell id="XkOptIO2cjGXNpbfzOup-66" value="" style="endArrow=none;html=1;strokeWidth=1.5;rounded=0;dashed=1;dashPattern=1 2;entryX=1;entryY=0;entryDx=0;entryDy=0;" edge="1" parent="XkOptIO2cjGXNpbfzOup-95" target="XkOptIO2cjGXNpbfzOup-61">
          <mxGeometry width="50" height="50" relative="1" as="geometry">
            <mxPoint x="450" y="540" as="sourcePoint" />
            <mxPoint x="370" y="220" as="targetPoint" />
          </mxGeometry>
        </mxCell>
        <mxCell id="XkOptIO2cjGXNpbfzOup-67" value="&lt;font style=&quot;font-size: 10px;&quot;&gt;1&lt;/font&gt;" style="text;html=1;align=center;verticalAlign=middle;whiteSpace=wrap;rounded=0;shadow=0;fontStyle=1" vertex="1" parent="XkOptIO2cjGXNpbfzOup-95">
          <mxGeometry x="197.5" y="540" width="22" height="20" as="geometry" />
        </mxCell>
        <mxCell id="XkOptIO2cjGXNpbfzOup-68" value="&lt;font style=&quot;font-size: 10px;&quot;&gt;2&lt;/font&gt;" style="text;html=1;align=center;verticalAlign=middle;whiteSpace=wrap;rounded=0;shadow=0;fontStyle=1" vertex="1" parent="XkOptIO2cjGXNpbfzOup-95">
          <mxGeometry x="239" y="540" width="22" height="20" as="geometry" />
        </mxCell>
        <mxCell id="XkOptIO2cjGXNpbfzOup-69" value="&lt;font style=&quot;font-size: 10px;&quot;&gt;3&lt;/font&gt;" style="text;html=1;align=center;verticalAlign=middle;whiteSpace=wrap;rounded=0;shadow=0;fontStyle=1" vertex="1" parent="XkOptIO2cjGXNpbfzOup-95">
          <mxGeometry x="280" y="540" width="22" height="20" as="geometry" />
        </mxCell>
        <mxCell id="XkOptIO2cjGXNpbfzOup-70" value="&lt;font style=&quot;font-size: 10px;&quot;&gt;4&lt;/font&gt;" style="text;html=1;align=center;verticalAlign=middle;whiteSpace=wrap;rounded=0;shadow=0;fontStyle=1" vertex="1" parent="XkOptIO2cjGXNpbfzOup-95">
          <mxGeometry x="319.5" y="540" width="22" height="20" as="geometry" />
        </mxCell>
        <mxCell id="XkOptIO2cjGXNpbfzOup-71" value="&lt;font style=&quot;font-size: 10px;&quot;&gt;5&lt;/font&gt;" style="text;html=1;align=center;verticalAlign=middle;whiteSpace=wrap;rounded=0;shadow=0;fontStyle=1" vertex="1" parent="XkOptIO2cjGXNpbfzOup-95">
          <mxGeometry x="359.5" y="540" width="22" height="20" as="geometry" />
        </mxCell>
        <mxCell id="XkOptIO2cjGXNpbfzOup-72" value="&lt;font style=&quot;font-size: 10px;&quot;&gt;6&lt;/font&gt;" style="text;html=1;align=center;verticalAlign=middle;whiteSpace=wrap;rounded=0;shadow=0;fontStyle=1" vertex="1" parent="XkOptIO2cjGXNpbfzOup-95">
          <mxGeometry x="399.5" y="540" width="22" height="20" as="geometry" />
        </mxCell>
        <mxCell id="XkOptIO2cjGXNpbfzOup-73" value="&lt;font style=&quot;font-size: 10px;&quot;&gt;7&lt;/font&gt;" style="text;html=1;align=center;verticalAlign=middle;whiteSpace=wrap;rounded=0;shadow=0;fontStyle=1" vertex="1" parent="XkOptIO2cjGXNpbfzOup-95">
          <mxGeometry x="439.5" y="540" width="22" height="20" as="geometry" />
        </mxCell>
        <mxCell id="XkOptIO2cjGXNpbfzOup-77" value="拥塞避免" style="rounded=0;whiteSpace=wrap;html=1;fillColor=#d5e8d4;strokeColor=#82b366;" vertex="1" parent="XkOptIO2cjGXNpbfzOup-95">
          <mxGeometry x="310" y="78" width="60" height="22" as="geometry" />
        </mxCell>
        <mxCell id="XkOptIO2cjGXNpbfzOup-78" value="慢启动" style="rounded=0;whiteSpace=wrap;html=1;fillColor=#f8cecc;strokeColor=#b85450;" vertex="1" parent="XkOptIO2cjGXNpbfzOup-95">
          <mxGeometry x="195" y="250" width="60" height="22" as="geometry" />
        </mxCell>
        <mxCell id="XkOptIO2cjGXNpbfzOup-80" value="慢启动阈值&lt;div&gt;ssthresh&lt;/div&gt;" style="rounded=0;whiteSpace=wrap;html=1;strokeColor=none;" vertex="1" parent="XkOptIO2cjGXNpbfzOup-95">
          <mxGeometry y="209" width="80" height="22" as="geometry" />
        </mxCell>
        <mxCell id="XkOptIO2cjGXNpbfzOup-81" value="" style="shape=flexArrow;endArrow=classic;html=1;rounded=0;width=4.571428571428571;endSize=7.417142857142857;endWidth=6.530612244897959;" edge="1" parent="XkOptIO2cjGXNpbfzOup-95">
          <mxGeometry width="50" height="50" relative="1" as="geometry">
            <mxPoint x="80" y="221.21" as="sourcePoint" />
            <mxPoint x="140" y="221.21" as="targetPoint" />
            <Array as="points" />
          </mxGeometry>
        </mxCell>
        <mxCell id="XkOptIO2cjGXNpbfzOup-83" value="" style="endArrow=classic;html=1;rounded=0;exitX=0.75;exitY=0;exitDx=0;exitDy=0;" edge="1" parent="XkOptIO2cjGXNpbfzOup-95" source="XkOptIO2cjGXNpbfzOup-11">
          <mxGeometry width="50" height="50" relative="1" as="geometry">
            <mxPoint x="360" y="710" as="sourcePoint" />
            <mxPoint x="530" y="540" as="targetPoint" />
          </mxGeometry>
        </mxCell>
        <mxCell id="XkOptIO2cjGXNpbfzOup-84" value="" style="endArrow=classic;html=1;rounded=0;exitX=0.75;exitY=0;exitDx=0;exitDy=0;" edge="1" parent="XkOptIO2cjGXNpbfzOup-95" source="XkOptIO2cjGXNpbfzOup-11">
          <mxGeometry width="50" height="50" relative="1" as="geometry">
            <mxPoint x="70" y="380" as="sourcePoint" />
            <mxPoint x="170" y="20" as="targetPoint" />
          </mxGeometry>
        </mxCell>
        <mxCell id="XkOptIO2cjGXNpbfzOup-85" value="请求应答轮次" style="text;html=1;align=center;verticalAlign=middle;whiteSpace=wrap;rounded=0;fontSize=8;" vertex="1" parent="XkOptIO2cjGXNpbfzOup-95">
          <mxGeometry x="530" y="530" width="60" height="20" as="geometry" />
        </mxCell>
        <mxCell id="XkOptIO2cjGXNpbfzOup-86" value="拥塞窗口 cwnd&amp;nbsp;&lt;div&gt;(单位：MSS)&lt;/div&gt;" style="text;html=1;align=center;verticalAlign=middle;whiteSpace=wrap;rounded=0;labelBorderColor=none;fontSize=8;strokeWidth=0;strokeColor=none;" vertex="1" parent="XkOptIO2cjGXNpbfzOup-95">
          <mxGeometry x="130" width="80" height="20" as="geometry" />
        </mxCell>
        <mxCell id="XkOptIO2cjGXNpbfzOup-87" value="11" style="text;html=1;align=center;verticalAlign=middle;whiteSpace=wrap;rounded=0;fontSize=8;" vertex="1" parent="XkOptIO2cjGXNpbfzOup-95">
          <mxGeometry x="391" y="85" width="22" height="13" as="geometry" />
        </mxCell>
        <mxCell id="XkOptIO2cjGXNpbfzOup-88" value="9" style="text;html=1;align=center;verticalAlign=middle;whiteSpace=wrap;rounded=0;fontSize=8;" vertex="1" parent="XkOptIO2cjGXNpbfzOup-95">
          <mxGeometry x="311" y="165.5" width="22" height="13" as="geometry" />
        </mxCell>
        <mxCell id="XkOptIO2cjGXNpbfzOup-89" value="10" style="text;html=1;align=center;verticalAlign=middle;whiteSpace=wrap;rounded=0;fontSize=8;" vertex="1" parent="XkOptIO2cjGXNpbfzOup-95">
          <mxGeometry x="351" y="124.5" width="22" height="13" as="geometry" />
        </mxCell>
        <mxCell id="XkOptIO2cjGXNpbfzOup-91" value="12" style="text;html=1;align=center;verticalAlign=middle;whiteSpace=wrap;rounded=0;fontSize=8;" vertex="1" parent="XkOptIO2cjGXNpbfzOup-95">
          <mxGeometry x="448" y="47" width="22" height="13" as="geometry" />
        </mxCell>
        <mxCell id="XkOptIO2cjGXNpbfzOup-92" value="4" style="text;html=1;align=center;verticalAlign=middle;whiteSpace=wrap;rounded=0;fontSize=8;" vertex="1" parent="XkOptIO2cjGXNpbfzOup-95">
          <mxGeometry x="233" y="364.5" width="22" height="13" as="geometry" />
        </mxCell>
        <mxCell id="XkOptIO2cjGXNpbfzOup-93" value="2" style="text;html=1;align=center;verticalAlign=middle;whiteSpace=wrap;rounded=0;fontSize=8;" vertex="1" parent="XkOptIO2cjGXNpbfzOup-95">
          <mxGeometry x="193" y="444.5" width="22" height="13" as="geometry" />
        </mxCell>
        <mxCell id="XkOptIO2cjGXNpbfzOup-94" value="8" style="text;html=1;align=center;verticalAlign=middle;whiteSpace=wrap;rounded=0;fontSize=8;" vertex="1" parent="XkOptIO2cjGXNpbfzOup-95">
          <mxGeometry x="272" y="206" width="22" height="13" as="geometry" />
        </mxCell>
        <mxCell id="XkOptIO2cjGXNpbfzOup-149" value="" style="group" vertex="1" connectable="0" parent="1">
          <mxGeometry x="420" y="-510" width="280" height="400" as="geometry" />
        </mxCell>
        <mxCell id="XkOptIO2cjGXNpbfzOup-98" value="" style="rounded=0;whiteSpace=wrap;html=1;fillColor=#D4E1F5;strokeColor=none;shadow=0;" vertex="1" parent="XkOptIO2cjGXNpbfzOup-149">
          <mxGeometry x="40" y="60" width="120" height="280" as="geometry" />
        </mxCell>
        <mxCell id="XkOptIO2cjGXNpbfzOup-99" value="&lt;font style=&quot;font-size: 10px;&quot;&gt;2&lt;/font&gt;" style="text;html=1;align=center;verticalAlign=middle;whiteSpace=wrap;rounded=0;shadow=0;fontStyle=1" vertex="1" parent="XkOptIO2cjGXNpbfzOup-149">
          <mxGeometry x="10" y="290" width="40" height="20" as="geometry" />
        </mxCell>
        <mxCell id="XkOptIO2cjGXNpbfzOup-100" value="&lt;font style=&quot;font-size: 10px;&quot;&gt;4&lt;/font&gt;" style="text;html=1;align=center;verticalAlign=middle;whiteSpace=wrap;rounded=0;shadow=0;fontStyle=1" vertex="1" parent="XkOptIO2cjGXNpbfzOup-149">
          <mxGeometry x="10" y="210" width="40" height="20" as="geometry" />
        </mxCell>
        <mxCell id="XkOptIO2cjGXNpbfzOup-101" value="&lt;font style=&quot;font-size: 10px;&quot;&gt;6&lt;/font&gt;" style="text;html=1;align=center;verticalAlign=middle;whiteSpace=wrap;rounded=0;shadow=0;fontStyle=1" vertex="1" parent="XkOptIO2cjGXNpbfzOup-149">
          <mxGeometry x="10" y="130" width="40" height="20" as="geometry" />
        </mxCell>
        <mxCell id="XkOptIO2cjGXNpbfzOup-105" value="&lt;font style=&quot;font-weight: normal; font-size: 8px;&quot;&gt;1&lt;/font&gt;" style="text;html=1;align=center;verticalAlign=middle;whiteSpace=wrap;rounded=0;shadow=0;fontStyle=1" vertex="1" parent="XkOptIO2cjGXNpbfzOup-149">
          <mxGeometry x="10" y="330" width="40" height="20" as="geometry" />
        </mxCell>
        <mxCell id="XkOptIO2cjGXNpbfzOup-106" value="&lt;font style=&quot;font-size: 10px;&quot;&gt;0&lt;/font&gt;" style="text;html=1;align=center;verticalAlign=middle;whiteSpace=wrap;rounded=0;shadow=0;fontStyle=1" vertex="1" parent="XkOptIO2cjGXNpbfzOup-149">
          <mxGeometry x="10" y="380" width="40" height="20" as="geometry" />
        </mxCell>
        <mxCell id="XkOptIO2cjGXNpbfzOup-107" value="" style="ellipse;whiteSpace=wrap;html=1;aspect=fixed;" vertex="1" parent="XkOptIO2cjGXNpbfzOup-149">
          <mxGeometry x="40" y="337.5" width="5" height="5" as="geometry" />
        </mxCell>
        <mxCell id="XkOptIO2cjGXNpbfzOup-108" value="" style="ellipse;whiteSpace=wrap;html=1;aspect=fixed;" vertex="1" parent="XkOptIO2cjGXNpbfzOup-149">
          <mxGeometry x="120" y="217.5" width="5" height="5" as="geometry" />
        </mxCell>
        <mxCell id="XkOptIO2cjGXNpbfzOup-112" value="" style="ellipse;whiteSpace=wrap;html=1;aspect=fixed;" vertex="1" parent="XkOptIO2cjGXNpbfzOup-149">
          <mxGeometry x="80" y="297.5" width="5" height="5" as="geometry" />
        </mxCell>
        <mxCell id="XkOptIO2cjGXNpbfzOup-113" value="" style="endArrow=none;html=1;rounded=0;exitX=0.5;exitY=0;exitDx=0;exitDy=0;" edge="1" parent="XkOptIO2cjGXNpbfzOup-149" source="XkOptIO2cjGXNpbfzOup-112">
          <mxGeometry width="50" height="50" relative="1" as="geometry">
            <mxPoint x="80" y="290" as="sourcePoint" />
            <mxPoint x="120" y="220" as="targetPoint" />
          </mxGeometry>
        </mxCell>
        <mxCell id="XkOptIO2cjGXNpbfzOup-114" value="" style="endArrow=none;html=1;rounded=0;entryX=0;entryY=1;entryDx=0;entryDy=0;exitX=1;exitY=0;exitDx=0;exitDy=0;" edge="1" parent="XkOptIO2cjGXNpbfzOup-149" source="XkOptIO2cjGXNpbfzOup-107" target="XkOptIO2cjGXNpbfzOup-112">
          <mxGeometry width="50" height="50" relative="1" as="geometry">
            <mxPoint x="40" y="340" as="sourcePoint" />
            <mxPoint x="210" y="150" as="targetPoint" />
          </mxGeometry>
        </mxCell>
        <mxCell id="XkOptIO2cjGXNpbfzOup-115" value="" style="endArrow=none;dashed=1;html=1;dashPattern=1 3;strokeWidth=2;rounded=0;entryX=0.5;entryY=1;entryDx=0;entryDy=0;" edge="1" parent="XkOptIO2cjGXNpbfzOup-149" target="XkOptIO2cjGXNpbfzOup-108">
          <mxGeometry width="50" height="50" relative="1" as="geometry">
            <mxPoint x="120" y="380" as="sourcePoint" />
            <mxPoint x="170" y="280" as="targetPoint" />
          </mxGeometry>
        </mxCell>
        <mxCell id="XkOptIO2cjGXNpbfzOup-116" value="" style="endArrow=none;dashed=1;html=1;dashPattern=1 3;strokeWidth=2;rounded=0;entryX=0.5;entryY=1;entryDx=0;entryDy=0;" edge="1" parent="XkOptIO2cjGXNpbfzOup-149" target="XkOptIO2cjGXNpbfzOup-112">
          <mxGeometry width="50" height="50" relative="1" as="geometry">
            <mxPoint x="80" y="380" as="sourcePoint" />
            <mxPoint x="133" y="233" as="targetPoint" />
          </mxGeometry>
        </mxCell>
        <mxCell id="XkOptIO2cjGXNpbfzOup-118" value="" style="ellipse;whiteSpace=wrap;html=1;aspect=fixed;" vertex="1" parent="XkOptIO2cjGXNpbfzOup-149">
          <mxGeometry x="159" y="59" width="5" height="5" as="geometry" />
        </mxCell>
        <mxCell id="XkOptIO2cjGXNpbfzOup-120" value="" style="endArrow=none;html=1;rounded=0;entryX=0;entryY=1;entryDx=0;entryDy=0;exitX=0;exitY=0.5;exitDx=0;exitDy=0;exitPerimeter=0;" edge="1" parent="XkOptIO2cjGXNpbfzOup-149" source="XkOptIO2cjGXNpbfzOup-108" target="XkOptIO2cjGXNpbfzOup-118">
          <mxGeometry width="50" height="50" relative="1" as="geometry">
            <mxPoint x="90" y="170" as="sourcePoint" />
            <mxPoint x="140" y="120" as="targetPoint" />
          </mxGeometry>
        </mxCell>
        <mxCell id="XkOptIO2cjGXNpbfzOup-122" value="" style="endArrow=none;html=1;strokeWidth=1.5;rounded=0;dashed=1;dashPattern=1 2;entryX=0.5;entryY=1;entryDx=0;entryDy=0;" edge="1" parent="XkOptIO2cjGXNpbfzOup-149" target="XkOptIO2cjGXNpbfzOup-118">
          <mxGeometry width="50" height="50" relative="1" as="geometry">
            <mxPoint x="160" y="380" as="sourcePoint" />
            <mxPoint x="210" y="30" as="targetPoint" />
          </mxGeometry>
        </mxCell>
        <mxCell id="XkOptIO2cjGXNpbfzOup-125" value="&lt;font style=&quot;font-size: 10px;&quot;&gt;1&lt;/font&gt;" style="text;html=1;align=center;verticalAlign=middle;whiteSpace=wrap;rounded=0;shadow=0;fontStyle=1" vertex="1" parent="XkOptIO2cjGXNpbfzOup-149">
          <mxGeometry x="67.5" y="380" width="22" height="20" as="geometry" />
        </mxCell>
        <mxCell id="XkOptIO2cjGXNpbfzOup-126" value="&lt;font style=&quot;font-size: 10px;&quot;&gt;2&lt;/font&gt;" style="text;html=1;align=center;verticalAlign=middle;whiteSpace=wrap;rounded=0;shadow=0;fontStyle=1" vertex="1" parent="XkOptIO2cjGXNpbfzOup-149">
          <mxGeometry x="109" y="380" width="22" height="20" as="geometry" />
        </mxCell>
        <mxCell id="XkOptIO2cjGXNpbfzOup-127" value="&lt;font style=&quot;font-size: 10px;&quot;&gt;3&lt;/font&gt;" style="text;html=1;align=center;verticalAlign=middle;whiteSpace=wrap;rounded=0;shadow=0;fontStyle=1" vertex="1" parent="XkOptIO2cjGXNpbfzOup-149">
          <mxGeometry x="150" y="380" width="22" height="20" as="geometry" />
        </mxCell>
        <mxCell id="XkOptIO2cjGXNpbfzOup-133" value="慢启动" style="rounded=0;whiteSpace=wrap;html=1;fillColor=#f8cecc;strokeColor=#b85450;" vertex="1" parent="XkOptIO2cjGXNpbfzOup-149">
          <mxGeometry x="65" y="90" width="60" height="22" as="geometry" />
        </mxCell>
        <mxCell id="XkOptIO2cjGXNpbfzOup-136" value="" style="endArrow=classic;html=1;rounded=0;exitX=0.75;exitY=0;exitDx=0;exitDy=0;" edge="1" parent="XkOptIO2cjGXNpbfzOup-149" source="XkOptIO2cjGXNpbfzOup-106">
          <mxGeometry width="50" height="50" relative="1" as="geometry">
            <mxPoint x="230" y="550" as="sourcePoint" />
            <mxPoint x="220" y="380" as="targetPoint" />
          </mxGeometry>
        </mxCell>
        <mxCell id="XkOptIO2cjGXNpbfzOup-137" value="" style="endArrow=classic;html=1;rounded=0;exitX=0.75;exitY=0;exitDx=0;exitDy=0;" edge="1" parent="XkOptIO2cjGXNpbfzOup-149" source="XkOptIO2cjGXNpbfzOup-106">
          <mxGeometry width="50" height="50" relative="1" as="geometry">
            <mxPoint x="-60" y="220" as="sourcePoint" />
            <mxPoint x="40" y="30" as="targetPoint" />
          </mxGeometry>
        </mxCell>
        <mxCell id="XkOptIO2cjGXNpbfzOup-138" value="请求应答轮次" style="text;html=1;align=center;verticalAlign=middle;whiteSpace=wrap;rounded=0;fontSize=8;" vertex="1" parent="XkOptIO2cjGXNpbfzOup-149">
          <mxGeometry x="220" y="380" width="60" height="20" as="geometry" />
        </mxCell>
        <mxCell id="XkOptIO2cjGXNpbfzOup-139" value="拥塞窗口 cwnd&amp;nbsp;&lt;div&gt;(单位：MSS)&lt;/div&gt;" style="text;html=1;align=center;verticalAlign=middle;whiteSpace=wrap;rounded=0;labelBorderColor=none;fontSize=8;strokeWidth=0;strokeColor=none;" vertex="1" parent="XkOptIO2cjGXNpbfzOup-149">
          <mxGeometry width="80" height="20" as="geometry" />
        </mxCell>
        <mxCell id="XkOptIO2cjGXNpbfzOup-144" value="4" style="text;html=1;align=center;verticalAlign=middle;whiteSpace=wrap;rounded=0;fontSize=8;" vertex="1" parent="XkOptIO2cjGXNpbfzOup-149">
          <mxGeometry x="103" y="204.5" width="22" height="13" as="geometry" />
        </mxCell>
        <mxCell id="XkOptIO2cjGXNpbfzOup-145" value="2" style="text;html=1;align=center;verticalAlign=middle;whiteSpace=wrap;rounded=0;fontSize=8;" vertex="1" parent="XkOptIO2cjGXNpbfzOup-149">
          <mxGeometry x="63" y="284.5" width="22" height="13" as="geometry" />
        </mxCell>
        <mxCell id="XkOptIO2cjGXNpbfzOup-146" value="8" style="text;html=1;align=center;verticalAlign=middle;whiteSpace=wrap;rounded=0;fontSize=8;" vertex="1" parent="XkOptIO2cjGXNpbfzOup-149">
          <mxGeometry x="142" y="46" width="22" height="13" as="geometry" />
        </mxCell>
        <mxCell id="XkOptIO2cjGXNpbfzOup-148" value="&lt;font style=&quot;font-size: 10px;&quot;&gt;8&lt;/font&gt;" style="text;html=1;align=center;verticalAlign=middle;whiteSpace=wrap;rounded=0;shadow=0;fontStyle=1" vertex="1" parent="XkOptIO2cjGXNpbfzOup-149">
          <mxGeometry x="10" y="51.5" width="40" height="20" as="geometry" />
        </mxCell>
        <mxCell id="XkOptIO2cjGXNpbfzOup-196" value="" style="group" vertex="1" connectable="0" parent="1">
          <mxGeometry x="50" y="-510" width="325" height="380" as="geometry" />
        </mxCell>
        <mxCell id="XkOptIO2cjGXNpbfzOup-151" value="" style="shape=flexArrow;endArrow=classic;html=1;rounded=0;fillColor=#cdeb8b;strokeColor=#36393d;" edge="1" parent="XkOptIO2cjGXNpbfzOup-196">
          <mxGeometry width="50" height="50" relative="1" as="geometry">
            <mxPoint x="125" y="60" as="sourcePoint" />
            <mxPoint x="125" y="380" as="targetPoint" />
          </mxGeometry>
        </mxCell>
        <mxCell id="XkOptIO2cjGXNpbfzOup-153" value="" style="shape=flexArrow;endArrow=classic;html=1;rounded=0;fillColor=#cdeb8b;strokeColor=#36393d;" edge="1" parent="XkOptIO2cjGXNpbfzOup-196">
          <mxGeometry width="50" height="50" relative="1" as="geometry">
            <mxPoint x="292" y="60" as="sourcePoint" />
            <mxPoint x="292" y="380" as="targetPoint" />
          </mxGeometry>
        </mxCell>
        <mxCell id="XkOptIO2cjGXNpbfzOup-160" value="" style="endArrow=classic;html=1;rounded=0;strokeColor=#FFAE9E;" edge="1" parent="XkOptIO2cjGXNpbfzOup-196">
          <mxGeometry width="50" height="50" relative="1" as="geometry">
            <mxPoint x="130" y="70" as="sourcePoint" />
            <mxPoint x="285" y="100" as="targetPoint" />
          </mxGeometry>
        </mxCell>
        <mxCell id="XkOptIO2cjGXNpbfzOup-161" value="TCP段" style="edgeLabel;html=1;align=center;verticalAlign=middle;resizable=0;points=[];" vertex="1" connectable="0" parent="XkOptIO2cjGXNpbfzOup-160">
          <mxGeometry x="-0.0937" y="-1" relative="1" as="geometry">
            <mxPoint as="offset" />
          </mxGeometry>
        </mxCell>
        <mxCell id="XkOptIO2cjGXNpbfzOup-162" value="" style="endArrow=classic;html=1;rounded=0;fillColor=#e1d5e7;strokeColor=#9673a6;" edge="1" parent="XkOptIO2cjGXNpbfzOup-196">
          <mxGeometry width="50" height="50" relative="1" as="geometry">
            <mxPoint x="285" y="102" as="sourcePoint" />
            <mxPoint x="130" y="130" as="targetPoint" />
          </mxGeometry>
        </mxCell>
        <mxCell id="XkOptIO2cjGXNpbfzOup-163" value="ACK" style="edgeLabel;html=1;align=center;verticalAlign=middle;resizable=0;points=[];" vertex="1" connectable="0" parent="XkOptIO2cjGXNpbfzOup-162">
          <mxGeometry x="0.2304" y="1" relative="1" as="geometry">
            <mxPoint as="offset" />
          </mxGeometry>
        </mxCell>
        <mxCell id="XkOptIO2cjGXNpbfzOup-165" value="" style="endArrow=classic;html=1;rounded=0;strokeColor=#FFAE9E;" edge="1" parent="XkOptIO2cjGXNpbfzOup-196">
          <mxGeometry width="50" height="50" relative="1" as="geometry">
            <mxPoint x="132" y="150" as="sourcePoint" />
            <mxPoint x="287" y="180" as="targetPoint" />
          </mxGeometry>
        </mxCell>
        <mxCell id="XkOptIO2cjGXNpbfzOup-167" value="" style="endArrow=classic;html=1;rounded=0;strokeColor=#FFAE9E;" edge="1" parent="XkOptIO2cjGXNpbfzOup-196">
          <mxGeometry width="50" height="50" relative="1" as="geometry">
            <mxPoint x="131" y="160" as="sourcePoint" />
            <mxPoint x="286" y="190" as="targetPoint" />
          </mxGeometry>
        </mxCell>
        <mxCell id="XkOptIO2cjGXNpbfzOup-170" value="" style="endArrow=classic;html=1;rounded=0;fillColor=#e1d5e7;strokeColor=#9673a6;" edge="1" parent="XkOptIO2cjGXNpbfzOup-196">
          <mxGeometry width="50" height="50" relative="1" as="geometry">
            <mxPoint x="286" y="181" as="sourcePoint" />
            <mxPoint x="131" y="209" as="targetPoint" />
          </mxGeometry>
        </mxCell>
        <mxCell id="XkOptIO2cjGXNpbfzOup-171" value="ACK" style="edgeLabel;html=1;align=center;verticalAlign=middle;resizable=0;points=[];" vertex="1" connectable="0" parent="XkOptIO2cjGXNpbfzOup-170">
          <mxGeometry x="0.2304" y="1" relative="1" as="geometry">
            <mxPoint as="offset" />
          </mxGeometry>
        </mxCell>
        <mxCell id="XkOptIO2cjGXNpbfzOup-172" value="" style="endArrow=classic;html=1;rounded=0;fillColor=#e1d5e7;strokeColor=#9673a6;" edge="1" parent="XkOptIO2cjGXNpbfzOup-196">
          <mxGeometry width="50" height="50" relative="1" as="geometry">
            <mxPoint x="287" y="191" as="sourcePoint" />
            <mxPoint x="132" y="219" as="targetPoint" />
          </mxGeometry>
        </mxCell>
        <mxCell id="XkOptIO2cjGXNpbfzOup-173" value="ACK" style="edgeLabel;html=1;align=center;verticalAlign=middle;resizable=0;points=[];" vertex="1" connectable="0" parent="XkOptIO2cjGXNpbfzOup-172">
          <mxGeometry x="0.2304" y="1" relative="1" as="geometry">
            <mxPoint as="offset" />
          </mxGeometry>
        </mxCell>
        <mxCell id="XkOptIO2cjGXNpbfzOup-174" value="" style="endArrow=classic;html=1;rounded=0;strokeColor=#FFAE9E;" edge="1" parent="XkOptIO2cjGXNpbfzOup-196">
          <mxGeometry width="50" height="50" relative="1" as="geometry">
            <mxPoint x="132" y="240" as="sourcePoint" />
            <mxPoint x="287" y="270" as="targetPoint" />
          </mxGeometry>
        </mxCell>
        <mxCell id="XkOptIO2cjGXNpbfzOup-175" value="" style="endArrow=classic;html=1;rounded=0;strokeColor=#FFAE9E;" edge="1" parent="XkOptIO2cjGXNpbfzOup-196">
          <mxGeometry width="50" height="50" relative="1" as="geometry">
            <mxPoint x="131" y="250" as="sourcePoint" />
            <mxPoint x="286" y="280" as="targetPoint" />
          </mxGeometry>
        </mxCell>
        <mxCell id="XkOptIO2cjGXNpbfzOup-176" value="" style="endArrow=classic;html=1;rounded=0;fillColor=#e1d5e7;strokeColor=#9673a6;" edge="1" parent="XkOptIO2cjGXNpbfzOup-196">
          <mxGeometry width="50" height="50" relative="1" as="geometry">
            <mxPoint x="286" y="271" as="sourcePoint" />
            <mxPoint x="131" y="299" as="targetPoint" />
          </mxGeometry>
        </mxCell>
        <mxCell id="XkOptIO2cjGXNpbfzOup-177" value="ACK" style="edgeLabel;html=1;align=center;verticalAlign=middle;resizable=0;points=[];" vertex="1" connectable="0" parent="XkOptIO2cjGXNpbfzOup-176">
          <mxGeometry x="0.2304" y="1" relative="1" as="geometry">
            <mxPoint as="offset" />
          </mxGeometry>
        </mxCell>
        <mxCell id="XkOptIO2cjGXNpbfzOup-178" value="" style="endArrow=classic;html=1;rounded=0;fillColor=#e1d5e7;strokeColor=#9673a6;" edge="1" parent="XkOptIO2cjGXNpbfzOup-196">
          <mxGeometry width="50" height="50" relative="1" as="geometry">
            <mxPoint x="287" y="281" as="sourcePoint" />
            <mxPoint x="132" y="309" as="targetPoint" />
          </mxGeometry>
        </mxCell>
        <mxCell id="XkOptIO2cjGXNpbfzOup-179" value="ACK" style="edgeLabel;html=1;align=center;verticalAlign=middle;resizable=0;points=[];" vertex="1" connectable="0" parent="XkOptIO2cjGXNpbfzOup-178">
          <mxGeometry x="0.2304" y="1" relative="1" as="geometry">
            <mxPoint as="offset" />
          </mxGeometry>
        </mxCell>
        <mxCell id="XkOptIO2cjGXNpbfzOup-180" value="" style="endArrow=classic;html=1;rounded=0;fillColor=#e1d5e7;strokeColor=#9673a6;" edge="1" parent="XkOptIO2cjGXNpbfzOup-196">
          <mxGeometry width="50" height="50" relative="1" as="geometry">
            <mxPoint x="286" y="290" as="sourcePoint" />
            <mxPoint x="131" y="318" as="targetPoint" />
          </mxGeometry>
        </mxCell>
        <mxCell id="XkOptIO2cjGXNpbfzOup-181" value="ACK" style="edgeLabel;html=1;align=center;verticalAlign=middle;resizable=0;points=[];" vertex="1" connectable="0" parent="XkOptIO2cjGXNpbfzOup-180">
          <mxGeometry x="0.2304" y="1" relative="1" as="geometry">
            <mxPoint as="offset" />
          </mxGeometry>
        </mxCell>
        <mxCell id="XkOptIO2cjGXNpbfzOup-182" value="" style="endArrow=classic;html=1;rounded=0;fillColor=#e1d5e7;strokeColor=#9673a6;" edge="1" parent="XkOptIO2cjGXNpbfzOup-196">
          <mxGeometry width="50" height="50" relative="1" as="geometry">
            <mxPoint x="287" y="300" as="sourcePoint" />
            <mxPoint x="132" y="328" as="targetPoint" />
          </mxGeometry>
        </mxCell>
        <mxCell id="XkOptIO2cjGXNpbfzOup-183" value="ACK" style="edgeLabel;html=1;align=center;verticalAlign=middle;resizable=0;points=[];" vertex="1" connectable="0" parent="XkOptIO2cjGXNpbfzOup-182">
          <mxGeometry x="0.2304" y="1" relative="1" as="geometry">
            <mxPoint as="offset" />
          </mxGeometry>
        </mxCell>
        <mxCell id="XkOptIO2cjGXNpbfzOup-184" value="" style="endArrow=classic;html=1;rounded=0;strokeColor=#FFAE9E;" edge="1" parent="XkOptIO2cjGXNpbfzOup-196">
          <mxGeometry width="50" height="50" relative="1" as="geometry">
            <mxPoint x="132" y="259" as="sourcePoint" />
            <mxPoint x="287" y="289" as="targetPoint" />
          </mxGeometry>
        </mxCell>
        <mxCell id="XkOptIO2cjGXNpbfzOup-185" value="" style="endArrow=classic;html=1;rounded=0;strokeColor=#FFAE9E;" edge="1" parent="XkOptIO2cjGXNpbfzOup-196">
          <mxGeometry width="50" height="50" relative="1" as="geometry">
            <mxPoint x="131" y="269" as="sourcePoint" />
            <mxPoint x="286" y="299" as="targetPoint" />
          </mxGeometry>
        </mxCell>
        <mxCell id="XkOptIO2cjGXNpbfzOup-186" value="" style="shape=curlyBracket;whiteSpace=wrap;html=1;rounded=1;labelPosition=left;verticalLabelPosition=middle;align=right;verticalAlign=middle;size=0.5;fillColor=#f8cecc;strokeColor=#b85450;" vertex="1" parent="XkOptIO2cjGXNpbfzOup-196">
          <mxGeometry x="95" y="67" width="20" height="68" as="geometry" />
        </mxCell>
        <mxCell id="XkOptIO2cjGXNpbfzOup-187" value="初始 cwnd&lt;div&gt;1MSS&lt;/div&gt;" style="text;html=1;align=center;verticalAlign=middle;resizable=0;points=[];autosize=1;strokeColor=none;fillColor=none;fontSize=8;" vertex="1" parent="XkOptIO2cjGXNpbfzOup-196">
          <mxGeometry x="20" y="86" width="60" height="30" as="geometry" />
        </mxCell>
        <mxCell id="XkOptIO2cjGXNpbfzOup-188" value="" style="shape=curlyBracket;whiteSpace=wrap;html=1;rounded=1;labelPosition=left;verticalLabelPosition=middle;align=right;verticalAlign=middle;size=0.5;fillColor=#f8cecc;strokeColor=#b85450;" vertex="1" parent="XkOptIO2cjGXNpbfzOup-196">
          <mxGeometry x="95" y="150" width="20" height="68" as="geometry" />
        </mxCell>
        <mxCell id="XkOptIO2cjGXNpbfzOup-189" value="1轮请求-应答后&lt;div&gt;cwnd 增加为 2MSS&lt;/div&gt;" style="text;html=1;align=center;verticalAlign=middle;resizable=0;points=[];autosize=1;strokeColor=none;fillColor=none;fontSize=8;" vertex="1" parent="XkOptIO2cjGXNpbfzOup-196">
          <mxGeometry y="169" width="90" height="30" as="geometry" />
        </mxCell>
        <mxCell id="XkOptIO2cjGXNpbfzOup-190" value="2轮请求-应答后&lt;div&gt;cwnd 增加为 4MSS&lt;/div&gt;" style="text;html=1;align=center;verticalAlign=middle;resizable=0;points=[];autosize=1;strokeColor=none;fillColor=none;fontSize=8;" vertex="1" parent="XkOptIO2cjGXNpbfzOup-196">
          <mxGeometry x="5" y="270" width="90" height="30" as="geometry" />
        </mxCell>
        <mxCell id="XkOptIO2cjGXNpbfzOup-191" value="" style="shape=curlyBracket;whiteSpace=wrap;html=1;rounded=1;labelPosition=left;verticalLabelPosition=middle;align=right;verticalAlign=middle;size=0.5;fillColor=#f8cecc;strokeColor=#b85450;" vertex="1" parent="XkOptIO2cjGXNpbfzOup-196">
          <mxGeometry x="90" y="240" width="20" height="90" as="geometry" />
        </mxCell>
        <mxCell id="XkOptIO2cjGXNpbfzOup-192" value="" style="image;aspect=fixed;perimeter=ellipsePerimeter;html=1;align=center;shadow=0;dashed=0;fontColor=#4277BB;labelBackgroundColor=default;fontSize=12;spacingTop=3;image=img/lib/ibm/analytics/device_analytics.svg;" vertex="1" parent="XkOptIO2cjGXNpbfzOup-196">
          <mxGeometry x="105" width="40" height="40" as="geometry" />
        </mxCell>
        <mxCell id="XkOptIO2cjGXNpbfzOup-193" value="Sender" style="text;html=1;align=center;verticalAlign=middle;resizable=0;points=[];autosize=1;strokeColor=none;fillColor=none;fontSize=8;" vertex="1" parent="XkOptIO2cjGXNpbfzOup-196">
          <mxGeometry x="100" y="40" width="50" height="20" as="geometry" />
        </mxCell>
        <mxCell id="XkOptIO2cjGXNpbfzOup-194" value="" style="image;aspect=fixed;perimeter=ellipsePerimeter;html=1;align=center;shadow=0;dashed=0;fontColor=#4277BB;labelBackgroundColor=default;fontSize=12;spacingTop=3;image=img/lib/ibm/applications/app_server.svg;" vertex="1" parent="XkOptIO2cjGXNpbfzOup-196">
          <mxGeometry x="275" width="40" height="40" as="geometry" />
        </mxCell>
        <mxCell id="XkOptIO2cjGXNpbfzOup-195" value="Receiver" style="text;html=1;align=center;verticalAlign=middle;resizable=0;points=[];autosize=1;strokeColor=none;fillColor=none;fontSize=8;" vertex="1" parent="XkOptIO2cjGXNpbfzOup-196">
          <mxGeometry x="265" y="36" width="60" height="20" as="geometry" />
        </mxCell>
      </root>
    </mxGraphModel>
  </diagram>
</mxfile>
